<?xml version="1.0" encoding="UTF-8" standalone="no"?><!DOCTYPE svg PUBLIC "-//W3C//DTD SVG 1.1//EN" "http://www.w3.org/Graphics/SVG/1.1/DTD/svg11.dtd"><svg width="100%" height="100%" viewBox="0 0 1027 469" version="1.1" xmlns="http://www.w3.org/2000/svg" xmlns:xlink="http://www.w3.org/1999/xlink" xml:space="preserve" xmlns:serif="http://www.serif.com/" style="fill-rule:evenodd;clip-rule:evenodd;stroke-linejoin:round;stroke-miterlimit:2;"><rect id="Artboard1" x="0" y="0" width="1026.83" height="468.297" style="fill:none;"/><g id="Layer1"></g><text x="338.251px" y="314.28px" style="font-family:'Flux';font-weight:500;font-size:286.985px;fill:#0065b1;">P<tspan x="458.497px 572.717px 698.13px 812.35px " y="314.28px 314.28px 314.28px 314.28px ">egen</tspan></text><g><path d="M191.387,102.384l0,24.526l-56.961,26.207l-31.608,-16.406l88.569,-34.327Z" style="fill:#0b82de;"/><path d="M191.387,102.384l0,24.733l90.342,32.293l19.189,-26.239l-109.531,-30.787Z" style="fill:#0065b1;"/><path d="M93.545,303.329l97.842,-24.592l-20.685,-9.637l-81.301,21.935l4.144,12.294Z" style="fill:#ffcb3c;"/><path d="M89.152,308.386l102.235,-29.687l0,20.536l-68.341,21.395l-33.894,-12.244Z" style="fill:#0065b1;"/><path d="M305.636,296.23l-114.249,-17.531l-0.5,20.536l97.749,17.189l17,-20.194Z" style="fill:#0065b1;"/><path d="M293.084,165.552l2.819,134.113l-18.407,-22.004l-1.869,-105.974l17.457,-6.135Z" style="fill:#ffcb3c;"/><path d="M190.887,347.018l-0,32.407l-128.46,-54.839l1.446,-187.875l127.514,43.851l0,98.137l-20.488,-9.82l-0.257,-67.68l-81.133,-28.887l-0.357,136.074l101.735,38.632Z" style="fill:#0b82de;"/><path d="M190.887,105.048l102.752,96.469l-104.094,148.671l-23.743,-10.128l99.645,-133.079l-96.649,-93.1l22.089,-8.833Z" style="fill:#0b82de;"/><path d="M191.113,289.663l23.712,-8.526l-0.364,-81.469l78.506,-34.234l0.09,130.051l-102.088,51.321l-0.082,32.619l123.672,-65.507l-0,-183.913l-123.172,50.557l-0.274,109.101Z" style="fill:#0065b1;"/><path d="M293.639,296.23l-102.752,-17.493l23.16,-9.858l63.827,9.157l15.765,18.194Z" style="fill:#ffcb3c;"/><path d="M111.735,299.665l64.997,25.909l-8.697,14.296l-78.883,-31.484l22.583,-8.721Z" style="fill:#ffcb3c;"/><path d="M160.413,336.668l30.974,8.322l0,34.435l-128.96,-54.759l26.725,-12.866l71.261,24.868Z" style="fill:#0b82de;"/><path d="M171.454,269.1l-82.302,-96.74l22.655,7.316l58.64,68.131l1.007,21.293Z" style="fill:#ffcb3c;"/><path d="M190.887,85.78l123.672,44.225l-123.172,50.557l-126.856,-43.851l126.356,-50.931Zm0.5,19.284l76.192,24.941l-76.192,27.4l-73.057,-24.171l73.057,-28.17Z" style="fill:#ffcb3c;"/><path d="M81.059,192.671l8.093,-20.311l82.302,96.74l-22.321,7.021l-68.074,-83.45Z" style="fill:#0b82de;"/><path d="M191.387,102.384l0,24.526l-56.961,26.207l-31.608,-16.406l88.569,-34.327Z" style="fill:#0b82de;"/><path d="M191.387,102.384l0,24.733l90.342,32.293l19.189,-26.239l-109.531,-30.787Z" style="fill:#0065b1;"/><path d="M89.152,308.386l102.235,-29.649l-20.685,-9.637l-81.301,21.935l-0.249,17.351Z" style="fill:#ffcb3c;"/><path d="M89.152,308.386l102.235,-29.687l0,20.536l-68.341,21.395l-33.894,-12.244Z" style="fill:#0065b1;"/><path d="M305.636,296.23l-114.249,-17.531l-0.5,20.536l97.749,17.189l17,-20.194Z" style="fill:#0065b1;"/><path d="M293.084,165.552l2.819,134.113l-18.407,-22.004l-1.869,-105.974l17.457,-6.135Z" style="fill:#ffcb3c;"/><path d="M190.887,347.018l-0,32.407l-128.46,-54.839l1.446,-187.875l127.514,43.851l0,98.137l-20.488,-9.82l-0.257,-67.68l-81.133,-28.887l-6.321,137.386l107.699,37.32Z" style="fill:#0b82de;"/><path d="M168.857,113.996l-0,23.279c-0.273,-0.132 94.651,94.522 94.698,94.286l6.289,-23.809l-100.987,-93.756Z" style="fill:#0065b1;"/><path d="M190.887,105.048l102.752,90.604l-3.299,4.368l-99.453,147.146l-24.266,-7.296l95.51,-136.813l-93.333,-89.176l22.089,-8.833Z" style="fill:#0b82de;"/><path d="M191.113,289.663l23.712,-8.526l-0.364,-81.469l78.506,-34.234l0.09,130.051l-102.088,51.321l-0.082,32.619l123.672,-65.507l-0,-183.913l-123.172,50.557l-0.274,109.101Z" style="fill:#0065b1;"/><path d="M293.639,296.23l-102.752,-17.493l23.16,-9.858l63.827,9.157l15.765,18.194Z" style="fill:#ffcb3c;"/><path d="M196.821,296.23l22.83,11.192l73.988,-111.77l-5.165,4.639l-25.488,5.18l-66.165,90.759Z" style="fill:#0b82de;"/><path d="M295.903,190.283l3.631,21.401l-91.513,135.482l-17.134,-0l105.016,-156.883Z" style="fill:#0065b1;"/><path d="M111.735,299.665l64.997,25.909l-9.186,14.296l-78.394,-31.484l22.583,-8.721Z" style="fill:#ffcb3c;"/><path d="M89.152,172.36l15.489,5.437l-1.733,109.694l-13.756,20.895l0,-136.026Z" style="fill:#0065b1;"/><path d="M171.454,269.1l-82.302,-96.74l23.545,8.232l57.75,67.215l1.007,21.293Z" style="fill:#ffcb3c;"/><path d="M190.887,85.78l123.672,44.225l-123.172,50.557l-126.856,-43.851l126.356,-50.931Zm0.5,19.284l76.192,24.941l-76.192,27.4l-73.057,-24.171l73.057,-28.17Z" style="fill:#ffcb3c;"/><path d="M81.059,192.671l8.093,-20.311l82.302,96.74l-22.321,7.021l-68.074,-83.45Z" style="fill:#0b82de;"/></g></svg>